<?xml version="1.0" encoding="utf-8"?>
<!-- Generator: Adobe Illustrator 25.3.1, SVG Export Plug-In . SVG Version: 6.00 Build 0)  -->
<svg version="1.1" id="Layer_1" xmlns="http://www.w3.org/2000/svg" xmlns:xlink="http://www.w3.org/1999/xlink" x="0px" y="0px"
	 viewBox="0 0 36 24" style="enable-background:new 0 0 36 24;" xml:space="preserve">
<style type="text/css">
	.st0{fill:none;}
	.st1{fill:#0F9D58;}
</style>
<path class="st0" d="M0,0h24v24H0V0z"/>
<path class="st1" d="M1,11h2V9H1V11z M1,7h2V5C1.9,5,1,5.9,1,7z M9,19h2v-2H9V19z M1,15h2v-2H1V15z M3,19v-2H1C1,18.1,1.9,19,3,19z
	 M21,15h2v-2h-2V15z M9,7h2V5H9V7z M5,19h2v-2H5V19z M5,7h2V5H5V7z M21,19c1.1,0,2-0.9,2-2h-2V19z M21,11h2V9h-2V11z M13,19h2v-2h-2
	V19z M17,19h2v-2h-2V19z M15,5h-2v2h2V5z M21,5v2h2C23,5.9,22.1,5,21,5z M19,5h-2v2h2V5z"/>
<polygon class="st1" points="11,15.5 7.4,12 8.8,10.6 10.9,12.7 15.2,8.5 16.6,9.9 "/>
</svg>
