<?xml version="1.0" encoding="utf-8"?>
<!-- Generator: Adobe Illustrator 25.3.1, SVG Export Plug-In . SVG Version: 6.00 Build 0)  -->
<svg version="1.1" id="Layer_1" xmlns="http://www.w3.org/2000/svg" xmlns:xlink="http://www.w3.org/1999/xlink" x="0px" y="0px"
	 viewBox="0 0 36 24" style="enable-background:new 0 0 36 24;" xml:space="preserve">
<style type="text/css">
	.st0{fill:none;}
	.st1{fill:#E94235;}
</style>
<path class="st0" d="M0,0h24v24H0V0z"/>
<path class="st1" d="M1,9h2V7H1V9z M1,13h2v-2H1V13z M1,5h2V3C1.9,3,1,3.9,1,5z M9,21h2v-2H9V21z M1,17h2v-2H1V17z M3,21v-2H1
	C1,20.1,1.9,21,3,21z M21,3h-8v6h10V5C23,3.9,22.1,3,21,3z M21,17h2v-2h-2V17z M9,5h2V3H9V5z M5,21h2v-2H5V21z M5,5h2V3H5V5z M21,21
	c1.1,0,2-0.9,2-2h-2V21z M21,13h2v-2h-2V13z M13,21h2v-2h-2V21z M17,21h2v-2h-2V21z"/>
<polygon class="st1" points="16.1,11.2 14.6,9.8 12.1,12.4 9.5,9.8 8.1,11.2 10.6,13.8 8.1,16.4 9.5,17.8 12.1,15.2 14.6,17.8 
	16.1,16.4 13.5,13.8 "/>
</svg>
