<?xml version="1.0" encoding="utf-8"?>
<!-- Generator: Adobe Illustrator 25.3.1, SVG Export Plug-In . SVG Version: 6.00 Build 0)  -->
<svg version="1.1" id="Layer_1" xmlns="http://www.w3.org/2000/svg" xmlns:xlink="http://www.w3.org/1999/xlink" x="0px" y="0px"
	 viewBox="0 0 36 24" style="enable-background:new 0 0 36 24;" xml:space="preserve">
<style type="text/css">
	.st0{fill:none;}
	.st1{fill:#E94235;}
</style>
<g>
	<rect x="6" class="st0" width="24" height="24"/>
</g>
<path class="st1" d="M14,2H6C4.9,2,4,2.9,4,4v16c0,1.1,0.9,2,2,2h12c1.1,0,2-0.9,2-2V8L14,2z M18,20H6V4h7v5h5V20z M26,10l1.4,1.4
	L29,9.8V18h2V9.9l1.6,1.6L34,10l-4-4L26,10z M16,11.7l-1.4-1.4L12,12.9l-2.6-2.6L8,11.7l2.6,2.6L8,16.9l1.4,1.4l2.6-2.6l2.6,2.6
	l1.4-1.4l-2.6-2.6L16,11.7z"/>
</svg>
